<?xml version="1.0" encoding="UTF-8" standalone="no"?>
<!-- Created with Inkscape (http://www.inkscape.org/) -->

<svg
   width="45mm"
   height="45.000145mm"
   viewBox="0 0 45 45.000145"
   version="1.1"
   id="svg5"
   xmlns="http://www.w3.org/2000/svg"
   xmlns:svg="http://www.w3.org/2000/svg">
  <defs
     id="defs2" />
  <g
     id="layer1"
     transform="translate(1.0407014e-6,10.000015)">
    <g
       id="g192"
       transform="matrix(0.18640024,0,0,-0.18640024,10,-5.2702804)">
      <path
         d="M 0,0 V -46.399 H -11.599 V 0 h -42.049 v -10.149 h 10.149 v -46.399 h 10.15 v 46.399 h 11.6 V -56.548 H 10.15 v 46.399 h 11.599 v -46.399 h 10.15 v 46.399 h 11.6 V -56.548 H 53.648 V 0 Z"
         style="fill:#ffffff;fill-opacity:1;fill-rule:nonzero;stroke:none"
         id="path194" />
    </g>
    <g
       id="g810"
       transform="matrix(1.0049013,0,0,1.0049014,-75.399677,-89.909525)">
      <path
         d="m 93.123355,117.56262 -4.927036,4.92691 h -6.407044 l -4.946474,-4.92691 v -4.71315 h 4.22589 v 6.32891 h 7.848212 v -6.32891 h 4.22589 z m -4.81016,-5.31661 v 6.32922 h -6.640654 v -6.32922 h -5.433318 v 5.54994 l 5.29704,5.29675 h 6.893772 l 5.297029,-5.29675 v -5.54994 h -5.413869"
         style="fill:#ffffff;fill-opacity:1;fill-rule:nonzero;stroke:none;stroke-width:0.0352778"
         id="path630" />
      <path
         d="m 87.105742,111.03859 v 6.32891 h -4.22589 v -6.32891 h -5.920056 l 4.829479,-4.82974 h 6.407044 l 4.829493,4.82974 z m 1.324293,-5.4332 h -6.893772 l -5.29704,5.29692 v 0.73985 h 6.037062 v 6.32905 h 5.433166 v -6.32905 h 6.017613 v -0.73985 l -5.297029,-5.29692"
         style="fill:#ffffff;fill-opacity:1;fill-rule:nonzero;stroke:none;stroke-width:0.0352778"
         id="path632" />
      <path
         d="m 94.330667,118.02952 -5.667058,5.66717 h -7.361062 l -5.667043,-5.66717 v -7.36092 l 5.667043,-5.66706 h 7.361062 l 5.667058,5.66706 z m -5.413764,-13.63169 h -7.848212 l -6.036769,6.03691 v 7.82864 l 6.036769,6.0369 h 7.848212 l 6.017472,-6.0369 v -7.82864 l -6.017472,-6.03691"
         style="fill:#ffffff;fill-opacity:1;fill-rule:nonzero;stroke:none;stroke-width:0.0352778"
         id="path634" />
    </g>
    <path
       d="m 43.000054,-10.000015 c 1.103665,0 1.995946,0.89588 1.995946,2.00106 L 45,7.999105 c 0,1.10505 -0.899054,2.00091 -2.00272,2.00091 H 27.00019 c -1.103944,0 -2.000222,-0.89586 -2.000222,-2.00091 l 0.0014,-15.99806 c 0,-1.10518 0.893658,-2.00106 1.99733,-2.00106 z m -13.75971,11.86187 v -7.0962 h 2.135681 v 7.0962 z m -2.702603,-9.8528 h 7.469125 v 2.1354 h -7.469125 z m 4.510589,12.42367 h -0.716703 l -0.548887,2.22004 -0.642585,-2.22004 h -0.514421 l -0.642292,2.22004 -0.543771,-2.22004 H 26.72295 l 0.939271,3.52007 h 0.573264 l 0.647389,-2.13567 0.647841,2.13567 h 0.573546 z m 11.917293,3.52007 v -3.52007 h -0.687106 v 2.15554 l -1.393895,-2.15554 h -0.613057 v 3.52007 h 0.68707 v -2.16036 l 1.394319,2.16036 z m -4.922626,0 V 7.339715 H 36.41154 v -0.85521 h 1.389063 V 5.871425 H 36.41154 v -0.82547 h 1.631457 v -0.61323 h -2.318844 v 3.52007 z m -4.672119,0 v -3.52007 h -0.687493 v 3.52007 z m 5.286587,-6.03428 -0.112995,-0.01 c -2.002155,-0.20902 -3.550109,-1.90045 -3.550109,-3.95785 v -5.94208 h 2.164186 l -0.0036,5.88959 c 0,0.86127 0.598876,1.63544 1.402715,1.83966 0.03528,0.008 0.06269,0.0141 0.09892,0.0203 z m 0.647806,-2.16285 c 0.03253,-0.006 0.05662,-0.01 0.08848,-0.0174 0.803663,-0.20394 1.40282,-0.97839 1.40282,-1.83966 l -0.01859,-5.88959 h 2.178121 v 5.92046 c 0.0019,2.05725 -1.560195,3.76795 -3.56235,3.97961 l -0.08791,0.009 -5.64e-4,-2.16242"
       style="fill:#ffffff;fill-opacity:1;fill-rule:evenodd;stroke:none;stroke-width:0.0352778"
       id="path878" />
    <g
       id="g1423"
       transform="translate(-143.22541,-181.45121)">
      <path
         d="m 172.85478,201.40201 c -0.004,0.004 -0.0101,0.008 -0.0103,0.0121 -4.1e-4,0.004 0.006,0.009 0.008,0.0127 0.004,-0.004 0.0101,-0.007 0.0102,-0.0117 2.8e-4,-0.004 -0.005,-0.009 -0.008,-0.0131 z m -0.0364,0.0958 c 0.004,-0.003 0.0108,-0.006 0.0109,-0.0103 5.5e-4,-0.003 -0.005,-0.008 -0.009,-0.012 -0.004,0.006 -0.007,0.0113 -0.0106,0.0172 0.003,0.002 0.006,0.004 0.009,0.005 z m 0.39219,-1.68148 c -0.002,0.003 -0.004,0.007 -0.006,0.0106 0.007,0 0.0132,6.7e-4 0.0201,0.001 -0.002,-0.004 -0.002,-0.009 -0.005,-0.011 -0.002,-0.002 -0.006,-6.7e-4 -0.01,-9.5e-4 z m -0.21125,1.32249 c 0.005,-0.004 0.012,-0.008 0.012,-0.0127 2.8e-4,-0.004 -0.007,-0.009 -0.0105,-0.0128 -0.004,0.006 -0.008,0.0124 -0.0124,0.019 0.004,0.002 0.008,0.004 0.0109,0.006 z m -0.0995,0.20507 c -0.003,-0.005 -0.006,-0.009 -0.009,-0.0134 -0.004,0.004 -0.01,0.007 -0.0102,0.0116 -2.8e-4,0.005 0.005,0.009 0.008,0.0131 0.003,-0.003 0.007,-0.008 0.0106,-0.0113 z m -0.28953,-0.57506 c -0.003,-0.004 -0.007,-0.009 -0.0103,-0.0127 -0.003,0.004 -0.0109,0.01 -0.0101,0.0117 0.004,0.006 0.01,0.0106 0.0147,0.0158 0.002,-0.005 0.004,-0.01 0.006,-0.0149 z m 3.85437,-3.58084 c -0.0124,-0.004 -0.0229,-0.008 -0.0339,-0.01 -0.004,-7e-4 -0.009,0.007 -0.0135,0.0107 0.008,0.005 0.0164,0.0131 0.0247,0.0138 0.007,0 0.0144,-0.009 0.0227,-0.0149 z m -3.31969,2.74409 c 0.004,-0.011 0.009,-0.0207 0.0117,-0.0317 6.9e-4,-0.003 -0.007,-0.008 -0.0103,-0.0121 -0.006,0.007 -0.0174,0.0135 -0.0171,0.019 8.3e-4,0.009 0.0101,0.0165 0.0157,0.0248 z m 0.81401,-0.97812 c -0.0267,-0.006 -0.0451,-0.0113 -0.0459,-0.01 -0.007,0.0173 -0.0116,0.0351 -0.0167,0.0535 0.018,-0.0128 0.0356,-0.0248 0.0626,-0.0438 z m 3.85629,-2.19039 c -6.7e-4,-0.005 -0.001,-0.0103 -0.002,-0.0155 -0.0298,0.002 -0.0594,0.003 -0.0889,0.005 7e-4,0.008 0.001,0.0165 0.002,0.0248 0.0297,-0.005 0.0592,-0.01 0.0889,-0.0145 z m -4.52616,2.96044 c -0.003,-0.003 -0.006,-0.006 -0.009,-0.007 -0.009,0.0103 -0.0185,0.0207 -0.0274,0.031 0.003,0.003 0.006,0.005 0.009,0.008 0.009,-0.0103 0.0185,-0.0207 0.0276,-0.0317 z m -0.73807,2.33302 c -0.009,-0.003 -0.0178,-0.006 -0.0263,-0.008 -0.0125,0.039 -0.0251,0.0786 -0.0376,0.11782 0.01,0.003 0.0198,0.006 0.0298,0.009 0.0113,-0.04 0.023,-0.0792 0.0342,-0.11878 z m 0.16453,-1.53144 c -0.005,-0.001 -0.009,-0.003 -0.0136,-0.005 -0.0167,0.0331 -0.0331,0.0668 -0.0492,0.10061 0.008,0.004 0.0154,0.007 0.0232,0.0103 0.0131,-0.0349 0.0266,-0.0703 0.0397,-0.10583 z m -0.0521,1.35326 c -0.0125,-0.007 -0.0249,-0.0134 -0.0375,-0.0196 -0.0288,0.0489 -0.0577,0.0981 -0.0867,0.14746 0.0152,0.008 0.0302,0.0158 0.0455,0.0244 0.0262,-0.0508 0.0524,-0.10128 0.0787,-0.15225 z m -0.25838,-0.60636 c -0.013,-0.008 -0.0258,-0.0168 -0.0389,-0.0248 -0.0232,0.0549 -0.0462,0.10929 -0.0695,0.16372 0.0101,0.004 0.0201,0.009 0.0303,0.0134 0.0259,-0.051 0.0518,-0.10128 0.078,-0.15229 z m 0.39426,0.28459 c -0.0134,-0.004 -0.027,-0.009 -0.0404,-0.0131 -0.0207,0.0562 -0.0415,0.11162 -0.0621,0.16781 0.011,0.004 0.0222,0.008 0.0333,0.0124 0.0229,-0.0555 0.0462,-0.11162 0.0692,-0.16714 z m 3.557,-4.31878 c -0.006,-0.0106 -0.0108,-0.0223 -0.0159,-0.0338 -0.0625,0.0296 -0.12496,0.0597 -0.18726,0.0886 0.005,0.0113 0.0105,0.0227 0.0157,0.034 0.0626,-0.0289 0.12485,-0.0586 0.18743,-0.0889 z m -2.58507,1.88239 c -0.006,-0.003 -0.0113,-0.006 -0.0171,-0.009 -0.0393,0.0568 -0.0783,0.11257 -0.11741,0.1688 0.015,0.009 0.0299,0.0173 0.0449,0.0258 0.03,-0.062 0.0598,-0.12432 0.0896,-0.18605 z m 1.67995,-1.50852 c 0.007,0.0147 0.0138,0.0292 0.0208,0.0437 0.21693,-0.10227 0.43381,-0.20465 0.65088,-0.30664 -0.008,-0.0168 -0.0159,-0.0333 -0.0236,-0.0503 -0.21597,0.10471 -0.4319,0.20916 -0.64812,0.31323 z m -2.98771,4.64633 c -0.0124,-9.8e-4 -0.0249,-0.003 -0.0379,-0.004 -0.16619,0.49773 -0.31102,0.99426 -0.37703,1.52438 -0.0675,0.54614 0.0214,1.06317 0.082,1.59096 0.0109,-0.12541 -0.005,-0.2497 -0.0117,-0.37444 -0.0121,-0.22599 -0.0303,-0.45307 -0.0247,-0.67867 0.006,-0.22462 0.036,-0.44923 0.0587,-0.67317 0.0157,-0.15254 0.0241,-0.30798 0.058,-0.45724 0.0393,-0.17046 0.1079,-0.33376 0.15489,-0.50324 0.0391,-0.13959 0.0659,-0.28292 0.0977,-0.42485 z m 0.44221,-2.02007 c -0.0533,0.0605 -0.1068,0.12111 -0.1604,0.18175 0.0163,0.0114 0.032,0.0231 0.0481,0.0345 0.0364,-0.0717 0.073,-0.14334 0.10928,-0.21499 l 0.009,-0.003 z m -0.39315,0.76468 c -0.0896,0.0441 -0.113,0.11684 -0.11906,0.19678 0.0131,0.006 0.0267,0.011 0.0398,0.0168 0.0255,-0.0726 0.0507,-0.14496 0.0758,-0.21689 0.006,-0.005 0.0117,-0.0101 0.0121,-0.0105 -4.1e-4,4.2e-4 -0.005,0.007 -0.009,0.0138 z m -0.64575,1.19542 c -0.0274,0.0583 -0.0546,0.11645 -0.0821,0.17435 0.0119,0.004 0.0237,0.008 0.0358,0.0121 0.0146,-0.0634 0.0292,-0.12612 0.0437,-0.18951 0.007,-0.0262 0.0132,-0.0534 0.0201,-0.0806 -0.006,0 -0.0116,-0.001 -0.0175,-0.002 0,0.0292 0,0.0577 0,0.086 z m 1.22011,-1.23567 c 0.0368,-0.0599 0.0736,-0.11963 0.10997,-0.17914 0.0474,-0.0847 0.0947,-0.16923 0.14221,-0.25358 0.008,-0.0107 0.0172,-0.0211 0.007,-0.009 0.006,-0.0145 5.5e-4,-0.002 -0.004,0.0117 -0.0489,0.0829 -0.0973,0.16672 -0.14621,0.24969 -0.0353,0.0613 -0.0706,0.12263 -0.10598,0.18369 -0.0208,0.01 -0.042,0.02 -0.063,0.0292 0.009,0.01 0.0172,0.0197 0.0258,0.03 0.0114,-0.0214 0.0227,-0.042 0.0342,-0.0627 z m -0.0671,-0.86099 c 0.0226,-0.0361 0.0453,-0.0722 0.0681,-0.10887 -0.0216,-0.005 -0.0434,-0.0113 -0.0655,-0.0168 0,0.0427 0,0.0868 0,0.13025 -0.009,0.003 -0.0186,0.006 -0.0278,0.009 0.008,-0.004 0.0169,-0.009 0.0252,-0.0138 z m 1.95006,-2.16726 c -0.0247,0.0141 -0.0491,0.0285 -0.0736,0.043 0.009,0.008 0.0174,0.0169 0.0263,0.0255 0.0145,-0.0241 0.0291,-0.0476 0.0434,-0.071 0.004,-0.004 0.009,-0.007 0.0124,-0.0113 0.001,-0.002 -0.001,-0.006 -0.002,-0.009 -0.002,0.008 -0.004,0.0156 -0.006,0.0231 z m -2.02448,3.28482 c -0.0106,0.0172 -0.0211,0.0345 -0.032,0.0521 0.007,0.003 0.0145,0.006 0.0214,0.009 0.002,-0.0217 0.005,-0.0434 0.007,-0.0655 0.004,-0.009 0.009,-0.0189 0.0135,-0.0288 -0.003,0.0109 -0.007,0.0221 -0.0102,0.0329 z m 3.01762,9.68693 c -0.35899,-0.17844 -0.72499,-0.34382 -1.07484,-0.5388 -1.24508,-0.69275 -2.14618,-1.7169 -2.80144,-2.96788 -0.35787,-0.68323 -0.6186,-1.40258 -0.74979,-2.16532 -0.019,-0.11148 -0.0358,-0.22394 -0.0537,-0.33556 0,-0.32519 0,-0.64975 0,-0.97494 0.01,-0.04 0.0249,-0.0795 0.0281,-0.12019 0.048,-0.65454 0.18383,-1.28887 0.39812,-1.91036 0.29917,-0.86678 0.73077,-1.65876 1.29315,-2.38083 0.42388,-0.54476 0.92577,-1.0039 1.48373,-1.40906 0.40186,-0.29186 0.81581,-0.5588 1.25844,-0.78204 0.42978,-0.21774 0.87986,-0.37659 1.34411,-0.49745 0.055,-0.0145 0.1137,-0.0152 0.17047,-0.0218 0.003,0.009 0.005,0.0183 0.008,0.028 -0.0927,0.043 -0.18492,0.0861 -0.27767,0.12911 -0.0721,0.0245 -0.14429,0.0489 -0.21664,0.073 0.007,0.0158 0.0139,0.0314 0.0208,0.0468 0.0641,-0.0413 0.12859,-0.0823 0.19294,-0.12362 0.22973,-0.0475 0.45917,-0.0951 0.6919,-0.14301 -0.0433,-0.10711 0.008,-0.13229 0.081,-0.14263 0.17625,-0.0262 0.35387,-0.0458 0.52836,-0.0813 0.1936,-0.0382 0.38474,-0.0912 0.57668,-0.1374 0.22864,0 0.45724,0 0.68587,0 -0.0377,0.0241 -0.0726,0.0616 -0.11313,0.0685 -0.17805,0.03 -0.35842,0.0493 -0.53689,0.0776 -0.0496,0.008 -0.0966,0.0324 -0.1396,0.071 0.14662,-0.0259 0.29394,-0.0476 0.43903,-0.0786 0.24145,-0.0514 0.47601,-0.0372 0.70694,0.0489 0.29065,0.10749 0.58691,0.20256 0.87122,0.3248 0.202,0.0872 0.38833,0.20987 0.58123,0.31665 -8.1e-4,0.0155 -0.002,0.031 -0.003,0.0465 -0.13476,0.0273 -0.26981,0.0555 -0.40457,0.0824 -5.6e-4,0.006 -0.001,0.0124 -0.002,0.0186 0.0646,0 0.12926,-10e-4 0.19403,0 0.0662,2.9e-4 0.13367,-0.006 0.19773,0.006 0.0653,0.0124 0.12679,0.0434 0.20465,0.0716 0.144,-0.0838 0.39645,0.01 0.61253,0.25728 -0.18299,0.0193 -0.35317,0.0372 -0.52405,0.0544 -1.26009,0.12954 -2.48751,0.3973 -3.66448,0.87369 -1.10988,0.44922 -2.10771,1.06934 -2.92531,1.95626 -0.84074,0.9121 -1.3327,2.00116 -1.59177,3.20145 -0.23027,1.06659 -0.23275,2.13251 0.0684,3.18975 0.15903,0.5588 0.41121,1.07252 0.72747,1.55967 0.14318,0.21978 0.24929,0.46302 0.37496,0.69412 0.0367,0.0675 0.0835,0.12951 0.1254,0.19361 l -0.002,-0.004 c 0.0192,0.0131 0.0386,0.0266 0.0579,0.0397 0.2978,0.49403 0.6485,0.94283 1.11096,1.2967 0.0243,0.0182 0.032,0.0586 0.0473,0.0885"
         style="fill:#ffffff;fill-opacity:1;fill-rule:evenodd;stroke:none;stroke-width:0.0352778"
         id="path1031" />
      <path
         d="m 187.44366,216.42264 c 0.001,0.0108 0.005,0.02 0.0125,0.0287 -0.26458,0 -0.52931,0 -0.794,0 0.003,-0.01 0.006,-0.019 0.0106,-0.0276 0.257,0 0.51389,-6.9e-4 0.77089,-0.001"
         style="fill:#231f20;fill-opacity:1;fill-rule:evenodd;stroke:none;stroke-width:0.0352778"
         id="path1033" />
      <path
         d="m 184.74325,204.44031 c -0.004,-0.002 -0.009,-0.008 -0.0117,-0.007 -0.005,0.002 -0.009,0.008 -0.0132,0.0114 0.008,0.003 0.016,0.006 0.0241,0.008 2.5e-4,-0.004 2.5e-4,-0.008 8.1e-4,-0.0127 z m -10.40571,1.59579 c -0.003,0 -0.007,0 -0.0103,0 0,0.0209 0,0.0409 0,0.0616 0.003,0 0.007,0 0.0103,0 0,-0.02 0,-0.0407 0,-0.0616 z m 0.0386,-0.133 c -0.005,0 -0.009,0 -0.0128,-6.7e-4 0,0.0154 -2.7e-4,0.0299 5.5e-4,0.0441 0,0.001 0.007,0.002 0.01,0.003 8.2e-4,-0.0156 0.002,-0.0303 0.002,-0.0462 z m 10.18784,4.37321 c -0.007,-0.004 -0.0149,-0.009 -0.0221,-0.0124 -0.0157,0.0237 -0.0309,0.0478 -0.0466,0.0719 0.008,0.004 0.0169,0.009 0.0252,0.0131 0.0144,-0.0241 0.029,-0.0483 0.0434,-0.0726 z m 0.32551,-5.98798 c -7.1e-4,-0.01 -0.001,-0.0203 -0.002,-0.0299 -0.006,0.003 -0.013,0.006 -0.0194,0.009 0.008,0.006 0.0163,0.012 0.0242,0.0182 0.008,0.003 0.0165,0.007 0.0247,0.009 -0.01,-0.002 -0.0189,-0.004 -0.0278,-0.007 z m -8.92641,6.61801 c -0.0153,-0.0299 -0.023,-0.0703 -0.0473,-0.0885 -0.46246,-0.35387 -0.81316,-0.80267 -1.11096,-1.2967 -0.0193,-0.0131 -0.0387,-0.0266 -0.0579,-0.0397 l 0.002,0.004 c -0.0276,-0.071 -0.0497,-0.14538 -0.0834,-0.21361 -0.22406,-0.45776 -0.39301,-0.93528 -0.47459,-1.43962 -0.036,-0.22299 -0.0368,-0.45173 -0.0489,-0.67909 -0.002,-0.0451 0.005,-0.0979 0.026,-0.13783 0.038,-0.0733 0.0685,-0.13572 -0.0171,-0.19774 -0.0135,-0.009 -0.0161,-0.0441 -0.0128,-0.0657 0.0185,-0.14125 0.0395,-0.28222 0.0657,-0.46302 0.0357,0.0613 0.05,0.0864 0.0736,0.12746 0,-0.0728 0,-0.12816 0,-0.18369 0.0117,-0.0155 0.0229,-0.0317 0.0343,-0.0471 -0.007,-0.003 -0.0134,-0.007 -0.0198,-0.0101 -0.004,0.0204 -0.007,0.04 -0.0113,0.0604 -0.007,-0.0558 -0.0289,-0.11578 -0.0175,-0.16743 0.10142,-0.45794 0.31419,-0.86405 0.58608,-1.24396 0.95952,-1.34098 2.26508,-2.09462 3.8917,-2.31345 0.85482,-0.11479 1.70135,-0.0678 2.54262,0.11257 0.0401,0.009 0.0788,0.0232 0.141,0.0413 -0.16813,0.099 -0.31147,0.1378 -0.49653,0.11024 -0.72373,-0.10678 -1.43482,-0.003 -2.13734,0.17886 -0.0656,0.0172 -0.13103,0.0361 -0.22476,0.0616 0.0908,0 0.15311,0 0.21541,0 0.002,0.007 0.005,0.0145 0.008,0.0218 -0.2322,0.0947 -0.46429,0.18948 -0.69634,0.28413 0.006,0.0131 0.0113,0.0262 0.017,0.039 0.067,-0.007 0.13434,-0.0145 0.23301,-0.0252 -0.0325,0.0424 -0.0416,0.0677 -0.057,0.0721 -0.57697,0.17198 -1.05639,0.50271 -1.48375,0.91571 -0.11627,0.11257 -0.21883,0.24006 -0.34092,0.34547 -0.17032,0.14609 -0.19706,0.37137 -0.32713,0.54363 -0.33458,0.44373 -0.47957,0.97222 -0.58057,1.51035 -0.0204,0.10859 0.007,0.22708 0.0125,0.34078 -0.0138,-0.005 -0.0273,-0.009 -0.0412,-0.0131 0.10654,-0.29256 0.21279,-0.58498 0.31877,-0.87782 0.0125,0.004 0.0252,0.008 0.0376,0.0103 -0.0406,0.19318 -0.0813,0.38653 -0.12209,0.58014 0.45226,-1.27194 1.20495,-2.30036 2.33507,-3.03484 0.012,0.0107 0.0241,0.0218 0.036,0.0321 -0.13613,0.11508 -0.27037,0.23287 -0.40954,0.34452 -0.3678,0.29584 -0.68132,0.64283 -0.96216,1.02041 -0.038,0.0513 -0.14358,0.10502 -0.0463,0.19915 0.004,0.004 -0.042,0.054 -0.058,0.0857 -0.0951,0.19057 -0.18852,0.38142 -0.28194,0.5727 l 0.004,-0.004 c -0.0503,0.14605 -0.10859,0.29048 -0.14771,0.4396 -0.0287,0.10788 -0.0179,0.22669 -0.0477,0.33457 -0.0813,0.29175 -0.0563,0.58939 -0.0727,0.88569 -0.023,0.41793 0.0661,0.81001 0.19554,1.19584 0.20987,0.6277 0.57531,1.15715 1.08053,1.58337 0.61873,0.52159 1.3426,0.78688 2.14464,0.87669 0.96104,0.10682 1.82905,-0.13187 2.63892,-0.63761 0.38805,-0.24211 0.76083,-0.50161 1.0735,-0.83964 0.58607,-0.63278 0.94657,-1.37651 1.1151,-2.22099 0.0831,-0.41518 0.1356,-0.83121 0.11451,-1.25261 -0.0357,-0.70763 -0.28801,-1.34083 -0.69494,-1.9341 0.2158,-0.13268 0.45463,-0.18436 0.69811,-0.20186 0.0507,-0.003 0.10707,0.0767 0.16126,0.11878 0.0176,0.0231 0.0351,0.0466 0.0529,0.069 0.007,-0.005 0.0138,-0.01 0.0208,-0.0149 -0.0177,-0.0255 -0.0354,-0.051 -0.0529,-0.0765 -8.1e-4,-0.0324 -0.0157,-0.0799 0,-0.0944 0.0624,-0.0572 0.3036,-0.0227 0.34508,0.051 0.11727,0.20807 0.23922,0.41504 0.33913,0.6314 0.49167,1.06426 0.58251,2.16352 0.27961,3.296 -0.16552,0.61832 -0.42457,1.19476 -0.79004,1.72145 -0.0511,0.073 -0.11053,0.14122 -0.16634,0.21125 -0.008,0.0265 -0.0154,0.0526 -0.0237,0.0795 0.0192,-0.0158 0.0385,-0.032 0.0577,-0.0476 0.20119,-0.2359 0.43025,-0.45406 0.59973,-0.71106 0.71247,-1.07996 0.88141,-2.26205 0.60081,-3.51607 -0.009,-0.0403 -0.0218,-0.0809 -0.026,-0.12195 -0.003,-0.0285 0.006,-0.0586 0.0419,-0.0985 0.0306,0.0841 0.0677,0.16605 0.09,0.25192 0.30345,1.15753 0.14209,2.25954 -0.40581,3.3117 -0.55262,1.06147 -1.43291,1.76703 -2.4966,2.26797 -1.11538,0.52462 -2.29235,0.73614 -3.51882,0.68351 -0.54765,-0.0232 -1.08095,-0.13342 -1.6086,-0.27908 -0.63761,-0.17611 -1.2609,-0.38721 -1.84076,-0.71036 -0.0517,-0.0287 -0.0984,-0.0659 -0.14746,-0.0997 0.0123,-0.0106 0.0244,-0.0223 0.0367,-0.0329 0.12911,0.0391 0.25823,0.0781 0.38735,0.11768 0.0247,0.0114 0.0492,0.0227 0.0736,0.0344 0.009,0.005 0.0175,0.0103 0.0263,0.0156 -0.01,-0.004 -0.0197,-0.008 -0.0296,-0.0128 -0.0238,-0.0106 -0.0485,-0.0223 -0.0726,-0.0331 -0.10792,-0.0809 -0.21608,-0.16259 -0.3241,-0.24281 -0.016,-0.0124 -0.0317,-0.0252 -0.0474,-0.0372 v 0.006 c -0.0234,-0.0134 -0.0466,-0.0273 -0.0699,-0.0404 l -0.003,0.001"
         style="fill:#ffffff;fill-opacity:1;fill-rule:evenodd;stroke:none;stroke-width:0.0352778"
         id="path1035" />
      <path
         d="m 178.71227,205.78556 c -0.003,-0.004 -0.006,-0.008 -0.009,-0.0127 -0.003,0.004 -0.009,0.008 -0.01,0.0117 -2.8e-4,0.004 0.005,0.009 0.008,0.0127 0.004,-0.004 0.007,-0.008 0.0108,-0.0117 z m 2.70563,-0.1881 c -0.004,-0.004 -0.008,-0.008 -0.0121,-0.012 -0.004,0.004 -0.008,0.008 -0.0118,0.0124 0.006,0.004 0.0121,0.009 0.0183,0.012 0.002,-0.004 0.004,-0.008 0.006,-0.0124 z m -2.93109,1.83804 c -0.003,0.004 -0.009,0.008 -0.01,0.0113 0,0.004 0.006,0.008 0.009,0.0121 0.003,-0.004 0.009,-0.007 0.009,-0.0115 4.3e-4,-0.004 -0.006,-0.008 -0.009,-0.012 z m 2.45014,-1.27194 c -0.004,0.004 -0.0109,0.008 -0.0103,0.0106 0.001,0.008 0.006,0.0151 0.009,0.0224 0.003,-0.004 0.0105,-0.007 0.01,-0.0107 -9.9e-4,-0.008 -0.006,-0.0147 -0.009,-0.0223 z m -1.95887,-0.8461 c 0.006,2.4e-4 0.0119,6.7e-4 0.0179,9.5e-4 0.002,-0.0172 0.004,-0.0348 0.006,-0.0529 -0.007,-8.4e-4 -0.0139,-0.002 -0.0207,-0.002 -9.6e-4,0.0182 -0.002,0.0359 -0.003,0.0538 z m 8.90062,1.92302 c -0.005,9.9e-4 -0.009,0.002 -0.0139,0.003 8.5e-4,0.0155 0.002,0.031 0.003,0.0465 0.002,0 0.004,0 0.007,0 0.002,-0.0161 0.003,-0.0327 0.005,-0.0492 z m -9.01432,-2.26479 c 0.011,0.003 0.0215,0.008 0.0325,0.012 0.004,-0.0241 0.008,-0.0476 0.0117,-0.0706 -0.0103,-0.002 -0.0281,-0.006 -0.0285,-0.004 -0.007,0.0204 -0.0112,0.0411 -0.0157,0.0624 z m 2.46313,0.81788 c -0.0106,-0.003 -0.0212,-0.007 -0.0316,-0.0103 -0.008,0.0257 -0.0169,0.0516 -0.0237,0.0779 -1.4e-4,0.001 0.0196,0.007 0.0302,0.0103 0.008,-0.0259 0.0166,-0.0521 0.0251,-0.0779 z m -2.36445,-0.95088 c 0.0124,0.007 0.0248,0.0131 0.0374,0.0196 0.0302,-0.0558 0.0602,-0.1119 0.0903,-0.16771 -0.013,-0.007 -0.0261,-0.0138 -0.0387,-0.02 -0.0298,0.0561 -0.0594,0.1119 -0.0889,0.1681 z m -0.78617,1.54301 c 0.11067,-0.24116 0.2092,-0.45642 0.30787,-0.67207 -0.0135,-0.006 -0.0272,-0.0117 -0.0404,-0.0172 -0.11229,0.20765 -0.2249,0.41617 -0.34174,0.6325 0.0203,0.0154 0.0448,0.0345 0.0743,0.0568 z m 0.1101,0.20987 c 0.13547,-0.24391 0.27161,-0.48782 0.4075,-0.73215 -0.0138,-0.006 -0.0271,-0.0138 -0.0403,-0.0207 -0.19289,0.21499 -0.30437,0.47131 -0.36833,0.75174 -0.01,0.007 -0.0194,0.0137 -0.0285,0.0207 -1.1e-4,0 0.005,0.009 0.008,0.0128 0.007,-0.0111 0.0143,-0.0221 0.0215,-0.0324 z m 1.58366,-2.74987 c -0.0536,0.0393 -0.10693,0.0781 -0.16055,0.11783 0.0135,0.0134 0.0272,0.0268 0.0408,0.0406 0.039,-0.0541 0.0783,-0.10887 0.1173,-0.16259 0.014,0.003 0.0284,0.005 0.0427,0.008 3.9e-4,-0.005 9.5e-4,-0.0103 0.002,-0.0147 -0.0138,0.004 -0.028,0.007 -0.0419,0.011 z m -1.0801,1.23155 c -0.0346,0.062 -0.0684,0.12375 -0.10255,0.18535 -0.006,0.007 -0.0128,0.0142 -0.019,0.0211 0.005,-0.009 0.0103,-0.0162 0.0157,-0.0241 0.0385,-0.0579 0.0772,-0.11466 0.11561,-0.17227 0.008,-0.0114 0.0181,-0.0234 0.0244,-0.0362 10e-4,-0.003 -0.0106,-0.0113 -0.0168,-0.0173 -0.006,0.0145 -0.0117,0.029 -0.0173,0.0434 z m 0.401,-0.17639 c 0.0273,-0.0117 0.055,-0.0237 0.0827,-0.0358 -0.015,-0.0147 -0.0305,-0.0296 -0.0455,-0.0448 -0.0192,0.0207 -0.0382,0.0414 -0.0575,0.062 -0.003,0.019 -0.005,0.039 -0.008,0.0579 0.009,-0.0127 0.0186,-0.0265 0.0281,-0.0393 z m 2.70729,0.46962 c -0.006,-0.0558 -0.0109,-0.11201 -0.0174,-0.17844 -0.13367,0.10954 -0.26031,0.21386 -0.38308,0.31489 0.14358,0.0365 -0.0354,0.10637 0.007,0.15572 -0.0132,0.0106 -0.0262,0.0209 -0.0394,0.032 -0.0103,0.0131 -0.0209,0.0269 -0.0309,0.0406 -0.005,7.1e-4 -0.0102,0.003 -0.0156,0.003 0.004,-0.002 0.008,-0.004 0.0123,-0.006 0.0102,-0.0142 0.0204,-0.028 0.0307,-0.0421 0.0132,-0.0103 0.0265,-0.0213 0.0401,-0.0317 0.0169,-0.007 0.0342,-0.0145 0.0518,-0.0213 0.0144,0.0127 0.0282,0.0255 0.0426,0.0386 -0.1542,0.19639 -0.30978,0.39137 -0.48327,0.56942 -0.009,-0.007 -0.0194,-0.0148 -0.0298,-0.0214 0.006,-0.0461 0.011,-0.0912 0.0167,-0.13709 0.012,-0.012 0.024,-0.0241 0.036,-0.0354 0.0148,-0.009 0.0299,-0.019 0.0446,-0.0275 0.009,-0.0156 0.0187,-0.0294 0.0281,-0.0445 0.0193,-0.002 0.0385,-0.006 0.0576,-0.008 -0.0143,-0.012 -0.0291,-0.0237 -0.0438,-0.0358 -0.004,0.0158 -0.007,0.0317 -0.0106,0.0479 -0.0135,0.0103 -0.0266,0.0214 -0.0404,0.0317 -0.0104,0.0134 -0.0214,0.0262 -0.0324,0.0393 -0.0121,0.012 -0.0242,0.0241 -0.0365,0.0365 -0.0175,-0.0307 -0.0354,-0.061 -0.0534,-0.0927 -0.15395,0.0675 0.0194,0.19815 -0.0528,0.2825 -0.0207,-0.006 -0.0499,-0.0165 -0.0589,-0.0196 -0.064,0.0675 -0.11729,0.12362 -0.18041,0.19047 0.0311,0.0879 0.10697,0.0854 0.19777,0.0321 l -0.003,-0.003 c -0.0734,0.14429 -0.14747,0.28872 -0.22144,0.433 -0.0159,-0.007 -0.0316,-0.0131 -0.0476,-0.0196 0.0333,-0.10198 0.067,-0.20365 0.10047,-0.3055 -0.007,-0.008 -0.013,-0.0163 -0.0196,-0.0245 -0.0423,0.0489 -0.0953,0.0926 -0.12442,0.14813 -0.0348,0.0664 -0.0484,0.14291 -0.0789,0.23979 -0.0256,-0.05 -0.0359,-0.0696 -0.0595,-0.11508 -0.0252,0.20256 -0.21636,0.2504 -0.29616,0.38407 -0.086,0.14538 -0.13987,0.31072 -0.19664,0.47127 -0.0631,0.17847 -0.11341,0.36217 -0.17293,0.55369 -0.0521,-0.0131 -0.1421,-0.009 -0.1706,-0.0493 -0.0409,-0.0568 -0.0364,-0.14608 -0.0553,-0.24102 -0.0292,0.0671 -0.0526,0.12016 -0.0805,0.18313 -0.0121,-0.0313 -0.02,-0.0526 -0.0295,-0.0772 -0.0309,0.0193 -0.0638,0.0393 -0.12252,0.0755 -0.006,-0.0882 -0.0112,-0.1506 -0.0172,-0.22846 -0.0441,0.0549 -0.0829,0.10308 -0.14481,0.17981 -0.0354,-0.0882 -0.0617,-0.15363 -0.0974,-0.24211 -0.0228,0.0538 -0.0406,0.0967 -0.0708,0.16881 -0.0737,-0.0528 -0.14358,-0.10238 -0.21442,-0.15336 -0.0455,0.11162 -0.12925,-0.0189 -0.1356,-0.0379 -0.0406,-0.11465 -0.11423,-0.0696 -0.19375,-0.0519 -0.0156,-0.11232 -0.0116,-0.21608 -0.12167,-0.31256 -0.0635,-0.0558 -0.0106,-0.24458 -0.0103,-0.37303 0.0147,-0.004 0.0299,-0.007 0.0448,-0.0107 -0.0248,-0.0138 -0.0497,-0.0279 -0.0962,-0.0544 -0.0726,0.20737 -0.14319,0.41064 -0.21456,0.61433 -0.0154,-0.004 -0.031,-0.008 -0.0466,-0.0124 0.003,-0.30014 0.20627,-0.55851 0.18711,-0.86928 -0.11546,0.25979 -0.23121,0.51996 -0.34671,0.78 -0.01,-0.005 -0.0194,-0.0103 -0.0295,-0.0155 0.0313,-0.18672 0.0623,-0.37345 0.093,-0.56017 0.009,-0.0186 0.019,-0.0376 0.0284,-0.0562 -0.008,-0.004 -0.0164,-0.007 -0.0246,-0.0103 0,0.0232 0,0.0466 0,0.0696 -0.0612,0.10241 -0.12248,0.20398 -0.18383,0.30565 -0.009,-0.002 -0.0186,-0.003 -0.0277,-0.005 0.0325,-0.12541 0.0602,-0.25149 0.0991,-0.37482 0.0441,-0.14125 0.0769,-0.27563 0.0712,-0.4312 -0.005,-0.11963 0.0875,-0.24476 0.14372,-0.36421 0.0524,-0.11024 0.1119,-0.21745 0.17131,-0.32427 0.16799,-0.30248 0.3314,-0.6084 0.50905,-0.90537 0.0842,-0.14083 0.18811,-0.27312 0.29987,-0.3937 0.0805,-0.0872 0.18877,-0.14923 0.28497,-0.22186 -0.0222,0.0468 -0.0429,0.0947 -0.0661,0.14015 -0.015,0.0307 -0.0335,0.0592 -0.0503,0.0882 0.0106,0.008 0.0209,0.0145 0.0317,0.022 0.0765,-0.0947 0.1531,-0.18909 0.2292,-0.2835 0.0799,-0.0397 0.1597,-0.0789 0.2395,-0.11849 -0.008,-0.0183 -0.0153,-0.0379 -0.0228,-0.0569 -0.038,0.0101 -0.083,0.011 -0.11243,0.0328 -0.0476,0.0348 -0.0848,0.0837 -0.1265,0.12611 -0.0416,0.0172 -0.0834,0.0347 -0.12485,0.0519 0.0372,-0.0489 0.0766,-0.0957 0.11105,-0.14633 0.036,-0.0531 0.0672,-0.10957 0.11053,-0.18052 0.0274,-0.0114 0.0871,-0.0259 0.13448,-0.0579 0.15296,-0.10375 0.29781,-0.22048 0.45353,-0.31968 0.0667,-0.043 0.0927,-0.1312 0.1972,-0.13893 0.0886,-0.005 0.12305,-0.14608 0.23936,-0.1349 0.0145,9.5e-4 0.0347,-0.0429 0.0493,-0.0672 0.0116,-0.0186 0.0222,-0.0583 0.0274,-0.0572 0.20133,0.0365 0.26539,-0.18786 0.42622,-0.22257 0.0525,-0.0114 0.1094,-0.002 0.17872,-0.002 0.067,-0.22324 0.30028,-0.1626 0.456,-0.24624 0.11959,-0.0645 0.25989,-0.0903 0.38612,-0.15434 -0.0765,0.014 -0.15269,0.0285 -0.22931,0.0427 -0.005,-0.006 -0.0109,-0.0115 -0.0163,-0.0173 0.0951,-0.0348 0.19402,-0.10583 0.28483,-0.0964 0.1953,0.0202 0.24599,0.0393 0.36435,-0.002 0.0174,-0.005 0.0294,-0.0278 0.0441,-0.0423 l -0.004,0.003 c 0.0438,-0.003 0.0875,-0.007 0.1312,-0.011 5.3e-4,-0.007 0.001,-0.0149 0.001,-0.0221 -0.027,-0.005 -0.0541,-0.01 -0.0809,-0.0152 0.002,-0.0103 0.005,-0.0211 0.007,-0.0314 0.0403,0.0138 0.0795,0.0314 0.12086,0.0406 0.0351,0.009 0.074,0.0149 0.10911,0.009 0.96862,-0.16259 1.91823,-0.0896 2.84512,0.23456 0.58427,0.20409 1.06151,0.57189 1.4986,1.00087 0.45656,0.44718 0.77283,0.97356 0.93169,1.59329 0.18838,0.73448 0.16305,1.45563 -0.18437,2.13801 -0.0996,0.1954 -0.28084,0.34836 -0.42485,0.52105 -0.0137,-0.008 -0.0272,-0.0156 -0.0406,-0.0236 0.008,-0.0434 0.0164,-0.0875 0.0247,-0.13077 -0.18037,0.32039 -0.33873,0.65511 -0.75999,0.71547 l 0.003,0.003 c 0.0142,-0.0321 0.0284,-0.0652 0.0515,-0.1185 -0.044,-0.003 -0.0779,-0.005 -0.11162,-0.008 0.003,0.11162 -0.13064,0.10749 -0.16302,0.19541 -0.0464,0.12499 -0.14619,0.17325 -0.2781,0.15091 l 0.003,0.003 c 0.0185,-0.0617 0.0164,-0.12058 0.0992,-0.16165 0.0787,-0.0388 0.13006,-0.13807 0.18781,-0.21494 0.11399,-0.1512 0.22698,-0.30417 0.33486,-0.46027 0.0626,-0.0909 0.1239,-0.18218 0.0491,-0.30526 -0.0181,-0.0296 0.0269,-0.10195 0.0503,-0.15159 0.0945,-0.19636 0.19152,-0.39095 0.28787,-0.58593 -0.0113,-0.007 -0.0225,-0.0131 -0.0336,-0.0193 -0.048,0.0809 -0.10005,0.16055 -0.14376,0.24391 -0.0915,0.17463 -0.17099,0.35553 -0.29944,0.50949 -0.026,0.0314 -0.0212,0.0886 -0.0309,0.13405 l 0.003,-0.003 c -0.0787,0.0896 -0.15766,0.17914 -0.23647,0.26942 -0.0129,-0.009 -0.0256,-0.0165 -0.0388,-0.0241 0.0532,-0.0955 0.10237,-0.1929 0.15956,-0.28664 0.2752,-0.44922 0.54652,-0.90053 0.67426,-1.41979 0.0944,-0.38403 0.13794,-0.76782 -0.0312,-1.1443 -0.18673,-0.41631 -0.52878,-0.65952 -0.93666,-0.81897 -0.50532,-0.19844 -1.03078,-0.17957 -1.55995,-0.1258 -0.6725,0.0693 -1.29812,0.27834 -1.8795,0.61665 -0.3018,0.17572 -0.61295,0.34011 -0.87287,0.58057 -0.0343,0.0313 -0.0779,0.0533 -0.11727,0.0799 l 0.003,0.003"
         style="fill:#ffffff;fill-opacity:1;fill-rule:evenodd;stroke:none;stroke-width:0.0352778"
         id="path1037" />
      <path
         d="m 187.44366,216.42264 c -0.257,4.1e-4 -0.51389,0.001 -0.77089,0.001 -0.44274,-0.0259 -0.86801,-0.12471 -1.25483,-0.34589 -0.1487,-0.085 -0.2909,-0.19568 -0.4064,-0.32177 -0.31789,-0.34699 -0.30385,-0.78755 0.0182,-1.13344 0.27549,-0.29462 0.62728,-0.45337 1.00831,-0.5592 0.69275,-0.19224 1.38878,-0.15848 2.10125,-0.0368 0.0165,0.30248 0.0325,0.60014 0.0507,0.9288 -0.0726,-0.0294 -0.12375,-0.05 -0.17444,-0.071 -0.39247,-0.16399 -0.79404,-0.23427 -1.20936,-0.0951 -0.0896,0.0296 -0.17904,0.0733 -0.25425,0.12913 -0.21512,0.16054 -0.21029,0.3762 0.005,0.5344 0.18052,0.13326 0.39109,0.17942 0.60826,0.19665 0.29891,0.0238 0.58526,-0.0324 0.86113,-0.14635 0.0481,-0.0197 0.0961,-0.0395 0.16193,-0.0668 -0.0164,0.31005 -0.0318,0.60316 -0.0488,0.92631 -0.23371,0.0197 -0.46468,0.04 -0.69578,0.06"
         style="fill:#ffffff;fill-opacity:1;fill-rule:evenodd;stroke:none;stroke-width:0.0352778"
         id="path1039" />
      <path
         d="m 184.28986,213.9791 c 0,0.25563 0,0.50574 0,0.7706 -0.28607,0 -0.56995,0 -0.87104,0 0,0.55783 0,1.10105 0,1.65158 -0.53249,0 -1.04719,0 -1.57925,0 0,-0.54433 0,-1.08686 0,-1.64125 -0.29626,0 -0.57601,0 -0.86857,0 0,-0.257 0,-0.51221 0,-0.78093 1.09403,0 2.19604,0 3.31886,0"
         style="fill:#ffffff;fill-opacity:1;fill-rule:evenodd;stroke:none;stroke-width:0.0352778"
         id="path1041" />
      <path
         d="m 180.05363,213.97662 c 0,0.81097 0,1.61299 0,2.42397 -0.52818,0 -1.04799,0 -1.57716,0 0,-0.80753 0,-1.6101 0,-2.42397 0.51869,0 1.03851,0 1.57716,0"
         style="fill:#ffffff;fill-opacity:1;fill-rule:evenodd;stroke:none;stroke-width:0.0352778"
         id="path1043" />
      <path
         d="m 175.98568,211.13095 c -0.22077,-0.0544 -0.36837,-0.20697 -0.51442,-0.36308 0.22268,0.0493 0.38446,0.19361 0.55108,0.33017 -0.0123,0.0106 -0.0244,0.0223 -0.0367,0.0329"
         style="fill:#231f20;fill-opacity:1;fill-rule:evenodd;stroke:none;stroke-width:0.0352778"
         id="path1045" />
      <path
         d="m 181.75692,205.51656 c 0.0201,-0.0755 -0.001,-0.19057 0.14192,-0.14608 l -0.003,-0.003 c -0.0475,0.0482 -0.0947,0.0969 -0.1422,0.14538 l 0.003,0.004"
         style="fill:#231f20;fill-opacity:1;fill-rule:evenodd;stroke:none;stroke-width:0.0352778"
         id="path1047" />
      <path
         d="m 186.73175,207.64286 c 0.032,0.006 0.064,0.0127 0.1082,0.021 -0.0192,0.0294 -0.0368,0.0576 -0.0678,0.10611 -0.0175,-0.0609 -0.0275,-0.0958 -0.0375,-0.12982 l -0.003,0.003"
         style="fill:#231f20;fill-opacity:1;fill-rule:evenodd;stroke:none;stroke-width:0.0352778"
         id="path1049" />
      <path
         d="m 186.2271,208.65092 c -0.0165,0.0375 -0.0333,0.0751 -0.05,0.11162 -0.0142,-0.0117 -0.0284,-0.0234 -0.0427,-0.0351 0.0318,-0.0246 0.0636,-0.0489 0.0959,-0.0731 l -0.003,-0.003"
         style="fill:#231f20;fill-opacity:1;fill-rule:evenodd;stroke:none;stroke-width:0.0352778"
         id="path1051" />
      <path
         d="m 182.5494,202.40633 c -0.0281,-0.004 -0.0561,-0.009 -0.1076,-0.0165 0.0379,-0.0197 0.0579,-0.03 0.0779,-0.0404 0.009,0.02 0.0178,0.0404 0.0262,0.0604 l 0.004,-0.003"
         style="fill:#231f20;fill-opacity:1;fill-rule:evenodd;stroke:none;stroke-width:0.0352778"
         id="path1053" />
      <path
         d="m 186.72487,208.42836 c -0.008,0.0379 -0.0157,0.0765 -0.0234,0.11507 -0.0142,-0.006 -0.0281,-0.0117 -0.042,-0.0172 0.0232,-0.0321 0.046,-0.0634 0.0689,-0.0951 l -0.003,-0.003"
         style="fill:#231f20;fill-opacity:1;fill-rule:evenodd;stroke:none;stroke-width:0.0352778"
         id="path1055" />
      <path
         d="m 176.37222,205.98276 c 0.0142,0.0244 0.0285,0.0485 0.0433,0.0729 -0.0133,0.007 -0.0263,0.0128 -0.0394,0.019 0,-0.0321 0,-0.0641 0,-0.0962 l -0.004,0.004"
         style="fill:#231f20;fill-opacity:1;fill-rule:evenodd;stroke:none;stroke-width:0.0352778"
         id="path1057" />
      <path
         d="m 181.75346,205.51244 c -0.0259,0.001 -0.0522,0.003 -0.0781,0.004 l -0.004,0.002 c 0.0285,-6.7e-4 0.0571,-0.002 0.0855,-0.002 l -0.003,-0.004"
         style="fill:#231f20;fill-opacity:1;fill-rule:evenodd;stroke:none;stroke-width:0.0352778"
         id="path1059" />
      <path
         d="m 180.99968,206.45778 c 0,-0.0218 0,-0.0427 0,-0.0641 0.006,9.8e-4 0.0138,0.003 0.0207,0.004 -0.008,0.0186 -0.016,0.0368 -0.0239,0.0554 l 0.003,0.005"
         style="fill:#231f20;fill-opacity:1;fill-rule:evenodd;stroke:none;stroke-width:0.0352778"
         id="path1061" />
      <path
         d="m 186.40349,208.1799 c 0.0139,-0.005 0.0281,-0.0103 0.0423,-0.0154 -10e-4,0.005 -0.002,0.0154 -0.003,0.0154 -0.0147,0 -0.0293,-0.001 -0.0437,-0.002 l 0.004,0.002"
         style="fill:#231f20;fill-opacity:1;fill-rule:evenodd;stroke:none;stroke-width:0.0352778"
         id="path1063" />
      <path
         d="m 186.39908,208.17757 c 0.004,0.0138 0.008,0.0275 0.0124,0.0413 -0.009,10e-4 -0.0179,0.003 -0.0267,0.004 0.006,-0.0145 0.0126,-0.0292 0.0187,-0.0434 l -0.004,-0.002"
         style="fill:#231f20;fill-opacity:1;fill-rule:evenodd;stroke:none;stroke-width:0.0352778"
         id="path1065" />
      <path
         d="m 181.87238,202.56413 c -0.0237,0.0103 -0.0476,0.0207 -0.0712,0.0306 -0.003,-0.009 -0.006,-0.0172 -0.01,-0.0258 0.0215,-0.008 0.0427,-0.0145 0.0645,-0.0221 0.005,0.006 0.0109,0.0117 0.0163,0.0173"
         style="fill:#231f20;fill-opacity:1;fill-rule:evenodd;stroke:none;stroke-width:0.0352778"
         id="path1067" />
      <path
         d="m 175.96596,210.90496 c 0.0233,0.0131 0.0465,0.027 0.0699,0.0404 -0.0234,-0.0134 -0.0466,-0.0273 -0.0699,-0.0404"
         style="fill:#231f20;fill-opacity:1;fill-rule:evenodd;stroke:none;stroke-width:0.0352778"
         id="path1069" />
      <path
         d="m 181.67532,205.51656 c -0.005,-0.009 -0.009,-0.0176 -0.0138,-0.0266 0.003,0.0101 0.007,0.0193 0.01,0.0289 l 0.004,-0.002"
         style="fill:#231f20;fill-opacity:1;fill-rule:evenodd;stroke:none;stroke-width:0.0352778"
         id="path1071" />
      <path
         d="m 187.50084,207.86723 c -0.0165,0.007 -0.0331,0.0136 -0.0497,0.0203 0.003,-0.0145 0.006,-0.0289 0.009,-0.0438 0.0135,0.008 0.027,0.0158 0.0406,0.0236"
         style="fill:#231f20;fill-opacity:1;fill-rule:evenodd;stroke:none;stroke-width:0.0352778"
         id="path1073" />
      <path
         d="m 186.43687,207.95666 c 0.0101,-0.01 0.0201,-0.0196 0.0298,-0.0299 0.004,0.004 0.0107,0.012 0.0104,0.012 -0.01,0.0103 -0.0201,0.02 -0.0304,0.0293 l -0.01,-0.0114"
         style="fill:#231f20;fill-opacity:1;fill-rule:evenodd;stroke:none;stroke-width:0.0352778"
         id="path1075" />
      <path
         d="m 186.44664,207.96809 c -0.009,0.007 -0.0172,0.0145 -0.0258,0.0217 0.006,-0.0113 0.0107,-0.0223 0.016,-0.0331 l 0.01,0.0114"
         style="fill:#231f20;fill-opacity:1;fill-rule:evenodd;stroke:none;stroke-width:0.0352778"
         id="path1077" />
      <path
         d="m 181.60007,205.61263 c 0.0121,-0.007 0.0246,-0.0141 0.0365,-0.021 -0.003,0.0175 -0.006,0.0358 -0.009,0.054 -0.009,-0.0106 -0.0183,-0.0221 -0.0273,-0.0331"
         style="fill:#231f20;fill-opacity:1;fill-rule:evenodd;stroke:none;stroke-width:0.0352778"
         id="path1079" />
      <path
         d="m 181.62738,205.64568 c -0.0102,0.0101 -0.0204,0.0204 -0.0303,0.0307 -0.0143,-0.0131 -0.0282,-0.0259 -0.0426,-0.0386 0.0153,-0.009 0.0305,-0.0165 0.0456,-0.0252 0.009,0.011 0.0182,0.0224 0.0273,0.0331"
         style="fill:#231f20;fill-opacity:1;fill-rule:evenodd;stroke:none;stroke-width:0.0352778"
         id="path1081" />
      <path
         d="m 176.03585,210.93985 c 0.0157,0.012 0.0314,0.0248 0.0474,0.0372 -0.016,-0.0124 -0.0317,-0.0252 -0.0474,-0.0372"
         style="fill:#231f20;fill-opacity:1;fill-rule:evenodd;stroke:none;stroke-width:0.0352778"
         id="path1083" />
      <path
         d="m 180.9965,206.45322 c -0.0146,0.009 -0.0293,0.0183 -0.0441,0.0273 l 0.003,0.003 c 0.0146,-0.009 0.0295,-0.0176 0.0441,-0.0262 l -0.003,-0.005"
         style="fill:#231f20;fill-opacity:1;fill-rule:evenodd;stroke:none;stroke-width:0.0352778"
         id="path1085" />
    </g>
  </g>
</svg>
